<svg width="1440" height="1200" viewBox="0 0 1440 1200" fill="none" xmlns="http://www.w3.org/2000/svg">
  <rect width="1440" height="1200" fill="#FAF8F5"/>
  <circle cx="120" cy="80" r="360" fill="#A3BFB0" opacity="0.18"/>
  <circle cx="1310" cy="92" r="300" fill="#E8B86D" opacity="0.13"/>
  <rect x="0" y="0" width="1440" height="70" fill="white" opacity="0.82"/>
  <line x1="0" y1="70" x2="1440" y2="70" stroke="#E8E4DD"/>
  <text x="120" y="43" fill="#27342F" font-family="Inter, Arial, sans-serif" font-size="20" font-weight="800">Domani</text>
  <text x="735" y="43" fill="#5F6B65" font-family="Inter, Arial, sans-serif" font-size="14" font-weight="600">About</text>
  <text x="806" y="43" fill="#5F6B65" font-family="Inter, Arial, sans-serif" font-size="14" font-weight="600">Pricing</text>
  <text x="886" y="43" fill="#5F6B65" font-family="Inter, Arial, sans-serif" font-size="14" font-weight="600">Compare</text>
  <text x="982" y="43" fill="#27342F" font-family="Inter, Arial, sans-serif" font-size="14" font-weight="800">Coming Soon</text>
  <text x="1118" y="43" fill="#5F6B65" font-family="Inter, Arial, sans-serif" font-size="14" font-weight="600">Resources</text>
  <rect x="1232" y="18" width="104" height="36" rx="10" fill="#6A8577"/>
  <text x="1252" y="41" fill="white" font-family="Inter, Arial, sans-serif" font-size="13" font-weight="800">Get Domani</text>

  <g transform="translate(120 124)">
    <rect x="0" y="0" width="88" height="32" rx="16" fill="#E4F1E9"/>
    <circle cx="18" cy="16" r="4" fill="#7D9B8A"/>
    <text x="31" y="21" fill="#5A7765" font-family="Inter, Arial, sans-serif" font-size="12" font-weight="800">Roadmap</text>
    <text x="0" y="88" fill="#1F2B27" font-family="Inter, Arial, sans-serif" font-size="56" font-weight="900" letter-spacing="-2.8">What’s next for</text>
    <text x="0" y="148" fill="#1F2B27" font-family="Inter, Arial, sans-serif" font-size="56" font-weight="900" letter-spacing="-2.8">calmer mornings.</text>
    <text x="0" y="190" fill="#66736C" font-family="Inter, Arial, sans-serif" font-size="18">Preview the Domani releases we’re shaping next. Each version highlights the planned changes,</text>
    <text x="0" y="220" fill="#66736C" font-family="Inter, Arial, sans-serif" font-size="18">expected timing, and the app platforms included.</text>
    <rect x="0" y="250" width="188" height="50" rx="14" fill="#6A8577"/>
    <text x="22" y="280" fill="white" font-family="Inter, Arial, sans-serif" font-size="15" font-weight="850">View planned releases</text>
    <rect x="202" y="250" width="136" height="50" rx="14" fill="white" stroke="#E8E4DD"/>
    <text x="227" y="280" fill="#435049" font-family="Inter, Arial, sans-serif" font-size="15" font-weight="850">Read changelog</text>
  </g>

  <g transform="translate(930 123)">
    <rect x="0" y="0" width="390" height="242" rx="22" fill="white" opacity="0.78" stroke="#E8E4DD"/>
    <rect x="16" y="16" width="358" height="210" rx="16" fill="white" stroke="#EDF0EC"/>
    <rect x="16" y="16" width="358" height="44" rx="16" fill="#F8FAF8"/>
    <text x="34" y="43" fill="#8D9892" font-family="Inter, Arial, sans-serif" font-size="12" font-weight="800">Roadmap status</text>
    <circle cx="326" cy="38" r="4" fill="#D1DBD4"/>
    <circle cx="342" cy="38" r="4" fill="#D1DBD4"/>
    <circle cx="358" cy="38" r="4" fill="#D1DBD4"/>
    <rect x="34" y="78" width="96" height="66" rx="13" fill="#F4F7F5" stroke="#EDF0EC"/>
    <text x="50" y="112" fill="#27342F" font-family="Inter, Arial, sans-serif" font-size="24" font-weight="900">1.2</text>
    <text x="50" y="130" fill="#8D9892" font-family="Inter, Arial, sans-serif" font-size="10" font-weight="800">NEXT VERSION</text>
    <rect x="146" y="78" width="96" height="66" rx="13" fill="#F4F7F5" stroke="#EDF0EC"/>
    <text x="162" y="112" fill="#27342F" font-family="Inter, Arial, sans-serif" font-size="24" font-weight="900">Aug</text>
    <text x="162" y="130" fill="#8D9892" font-family="Inter, Arial, sans-serif" font-size="10" font-weight="800">TARGET MONTH</text>
    <rect x="258" y="78" width="96" height="66" rx="13" fill="#F4F7F5" stroke="#EDF0EC"/>
    <text x="274" y="112" fill="#27342F" font-family="Inter, Arial, sans-serif" font-size="24" font-weight="900">6</text>
    <text x="274" y="130" fill="#8D9892" font-family="Inter, Arial, sans-serif" font-size="10" font-weight="800">HIGHLIGHTS</text>
    <rect x="34" y="160" width="320" height="46" rx="14" fill="white" stroke="#E8E4DD"/>
    <rect x="48" y="171" width="24" height="24" rx="8" fill="#E8EDE9"/>
    <text x="54" y="188" fill="#5A7765" font-family="Inter, Arial, sans-serif" font-size="12" font-weight="900">✓</text>
    <text x="84" y="184" fill="#27342F" font-family="Inter, Arial, sans-serif" font-size="13" font-weight="800">Focused releases</text>
    <text x="84" y="200" fill="#66736C" font-family="Inter, Arial, sans-serif" font-size="12">Grouped around meaningful app versions.</text>
  </g>

  <g transform="translate(120 448)">
    <text x="0" y="0" fill="#5A7765" font-family="Inter, Arial, sans-serif" font-size="13" font-weight="900" letter-spacing="4">PLANNED RELEASES</text>
    <rect x="955" y="-25" width="245" height="42" rx="15" fill="white" opacity="0.74" stroke="#E8E4DD"/>
    <rect x="961" y="-19" width="46" height="30" rx="11" fill="#6A8577"/>
    <text x="975" y="0" fill="white" font-family="Inter, Arial, sans-serif" font-size="12" font-weight="800">All</text>
    <text x="1028" y="0" fill="#6C7771" font-family="Inter, Arial, sans-serif" font-size="12" font-weight="800">iOS</text>
    <text x="1081" y="0" fill="#6C7771" font-family="Inter, Arial, sans-serif" font-size="12" font-weight="800">Android</text>
  </g>

  <g transform="translate(120 495)">
    <rect width="1200" height="218" rx="24" fill="white" opacity="0.78" stroke="#E8E4DD"/>
    <rect width="210" height="218" rx="24" fill="#F4F7F5"/>
    <text x="28" y="52" fill="#3D4A44" font-family="Inter, Arial, sans-serif" font-size="32" font-weight="900">1.2</text>
    <text x="28" y="80" fill="#66736C" font-family="Inter, Arial, sans-serif" font-size="14" font-weight="800">Targeting August 2026</text>
    <rect x="234" y="26" width="104" height="30" rx="15" fill="#F4F7F5"/>
    <text x="248" y="46" fill="#5A7765" font-family="Inter, Arial, sans-serif" font-size="12" font-weight="850">iOS + Android</text>
    <rect x="348" y="26" width="72" height="30" rx="15" fill="#FFF5DF"/>
    <text x="363" y="46" fill="#9C6D1F" font-family="Inter, Arial, sans-serif" font-size="12" font-weight="850">Planned</text>
    <text x="234" y="92" fill="#24302C" font-family="Inter, Arial, sans-serif" font-size="24" font-weight="900">Smarter evening planning setup</text>
    <text x="234" y="127" fill="#66736C" font-family="Inter, Arial, sans-serif" font-size="16">We’re making the first few nights with Domani easier, with clearer setup prompts and better guidance</text>
    <text x="234" y="151" fill="#66736C" font-family="Inter, Arial, sans-serif" font-size="16">for choosing a realistic tomorrow plan.</text>
    <g transform="translate(234 172)">
      <rect width="286" height="56" rx="16" fill="white" stroke="#E8E4DD"/>
      <rect x="14" y="13" width="30" height="30" rx="10" fill="#E8EDE9"/>
      <text x="25" y="33" fill="#5A7765" font-family="Inter, Arial, sans-serif" font-size="14" font-weight="900">1</text>
      <text x="58" y="26" fill="#27342F" font-family="Inter, Arial, sans-serif" font-size="14" font-weight="850">Guided first plan</text>
      <text x="58" y="45" fill="#66736C" font-family="Inter, Arial, sans-serif" font-size="12">Choose your first most important task.</text>
    </g>
    <g transform="translate(536 172)">
      <rect width="286" height="56" rx="16" fill="white" stroke="#E8E4DD"/>
      <rect x="14" y="13" width="30" height="30" rx="10" fill="#E8EDE9"/>
      <text x="25" y="33" fill="#5A7765" font-family="Inter, Arial, sans-serif" font-size="14" font-weight="900">2</text>
      <text x="58" y="26" fill="#27342F" font-family="Inter, Arial, sans-serif" font-size="14" font-weight="850">Category suggestions</text>
      <text x="58" y="45" fill="#66736C" font-family="Inter, Arial, sans-serif" font-size="12">Helpful starter categories.</text>
    </g>
    <g transform="translate(838 172)">
      <rect width="286" height="56" rx="16" fill="white" stroke="#E8E4DD"/>
      <rect x="14" y="13" width="30" height="30" rx="10" fill="#E8EDE9"/>
      <text x="25" y="33" fill="#5A7765" font-family="Inter, Arial, sans-serif" font-size="14" font-weight="900">3</text>
      <text x="58" y="26" fill="#27342F" font-family="Inter, Arial, sans-serif" font-size="14" font-weight="850">Plan confidence check</text>
      <text x="58" y="45" fill="#66736C" font-family="Inter, Arial, sans-serif" font-size="12">Keep tomorrow focused.</text>
    </g>
  </g>

  <g transform="translate(120 738)">
    <rect width="1200" height="196" rx="24" fill="white" opacity="0.78" stroke="#E8E4DD"/>
    <rect width="210" height="196" rx="24" fill="#F4F7F5"/>
    <text x="28" y="52" fill="#3D4A44" font-family="Inter, Arial, sans-serif" font-size="32" font-weight="900">1.3</text>
    <text x="28" y="80" fill="#66736C" font-family="Inter, Arial, sans-serif" font-size="14" font-weight="800">Targeting October 2026</text>
    <rect x="234" y="26" width="72" height="30" rx="15" fill="#F4F7F5"/>
    <text x="249" y="46" fill="#5A7765" font-family="Inter, Arial, sans-serif" font-size="12" font-weight="850">Android</text>
    <rect x="316" y="26" width="74" height="30" rx="15" fill="#FFF1ED"/>
    <text x="331" y="46" fill="#AD513B" font-family="Inter, Arial, sans-serif" font-size="12" font-weight="850">Planning</text>
    <text x="234" y="92" fill="#24302C" font-family="Inter, Arial, sans-serif" font-size="24" font-weight="900">Android planning polish</text>
    <text x="234" y="127" fill="#66736C" font-family="Inter, Arial, sans-serif" font-size="16">Android-specific improvements for the daily planning flow, including clearer task controls and a more</text>
    <text x="234" y="151" fill="#66736C" font-family="Inter, Arial, sans-serif" font-size="16">consistent review experience before bed.</text>
  </g>
</svg>
